# xmcd
#
# Track frame offsets:
# 150
# 12118
# 27383
# 38478
# 52331
# 66855
# 81587
# 91166
# 110900
#
# Disc length: 1667 seconds
#
# Revision: 0
# Processed by: cddbd v1.5.2PL0 Copyright (c) Steve Scherf et al.
# Submitted via: Audion 3.0.2 (http://www.panic.com/audion/)
#
DISCID=76068109
DTITLE=lino petaccia - lino
DYEAR=1900
DGENRE=
TTITLE0=fratelli d italia
TTITLE1=aspettame papa
TTITLE2=andrà come andrà
TTITLE3=guardami negli occhi
TTITLE4=nel mio teatro
TTITLE5=melodia d amore
TTITLE6=un po di te e un po di me
TTITLE7=melodia d amore cantata da pikkio
TTITLE8=nel mio teatro cantata da pikkio 
EXTD=
EXTT0=
EXTT1=
EXTT2=
EXTT3=
EXTT4=
EXTT5=
EXTT6=
EXTT7=
EXTT8=
PLAYORDER=
